<svg width="20" height="21" viewBox="0 0 20 21" fill="none" xmlns="http://www.w3.org/2000/svg">
<path d="M0 10.1016C0 4.57871 4.47715 0.101562 10 0.101562C15.5228 0.101562 20 4.57871 20 10.1016C20 15.6244 15.5228 20.1016 10 20.1016C4.47715 20.1016 0 15.6244 0 10.1016Z" fill="#0077B5"/>
<path d="M7.06309 8.38379V15.1928H4.79688V8.38379H7.06309Z" fill="white"/>
<path d="M7.21355 6.27769C7.21355 6.93148 6.72142 7.45462 5.93122 7.45462H5.91674C5.15592 7.45462 4.66406 6.93148 4.66406 6.27769C4.66406 5.61006 5.1709 5.10156 5.94616 5.10156C6.72142 5.10156 7.19884 5.61006 7.21355 6.27769Z" fill="white"/>
<path d="M15.231 11.2894L15.2309 15.1935H12.9647V11.5507C12.9647 10.6357 12.6368 10.0113 11.8164 10.0113C11.1903 10.0113 10.8174 10.4322 10.6536 10.8388C10.5937 10.9845 10.579 11.1875 10.579 11.391V15.1937H8.3125C8.3125 15.1937 8.34237 9.02361 8.3125 8.38468H10.579V9.34912C10.8798 8.8855 11.4185 8.22461 12.6217 8.22461C14.113 8.22461 15.231 9.198 15.231 11.2894Z" fill="white"/>
</svg>
