<svg width="18" height="18" viewBox="0 0 18 18" fill="none" xmlns="http://www.w3.org/2000/svg">
<path d="M8.96703 0.666038C4.43624 0.666038 0.75162 4.34227 0.750009 8.8609C0.747777 10.4039 1.18312 11.916 2.0057 13.2224L2.20113 13.5325L1.37121 16.5565L4.48003 15.743L4.78022 15.9204C6.04102 16.6673 7.48663 17.0622 8.96086 17.063H8.96395C13.4912 17.063 17.1759 13.3864 17.1776 8.86747C17.181 7.79041 16.9704 6.72337 16.5578 5.72812C16.1452 4.73287 15.5389 3.82919 14.7741 3.0694C14.0134 2.30545 13.1085 1.69967 12.1118 1.28713C11.115 0.874595 10.0461 0.663489 8.96703 0.666038Z" fill="url(#paint0_linear_4037_65143)"/>
<path fill-rule="evenodd" clip-rule="evenodd" d="M6.497 4.73768C6.31192 4.32733 6.11716 4.31902 5.94134 4.31192L5.46802 4.30615C5.30336 4.30615 5.0358 4.36782 4.80962 4.61448C4.58344 4.86115 3.94531 5.45729 3.94531 6.66983C3.94531 7.88237 4.83017 9.05403 4.95347 9.21865C5.07677 9.38327 6.66167 11.9509 9.17158 12.9387C11.2573 13.7597 11.6818 13.5964 12.1347 13.5554C12.5876 13.5143 13.5956 12.9592 13.8012 12.3837C14.0069 11.8082 14.007 11.3152 13.9454 11.2121C13.8837 11.109 13.719 11.0477 13.4719 10.9244C13.2248 10.801 12.011 10.2049 11.7847 10.1226C11.5583 10.0403 11.3938 9.99939 11.229 10.2461C11.0642 10.4927 10.5915 11.0476 10.4474 11.2121C10.3033 11.3766 10.1595 11.3972 9.91232 11.274C9.66518 11.1508 8.87005 10.8905 7.92663 10.0509C7.19261 9.39761 6.69713 8.59086 6.55287 8.34433C6.40862 8.0978 6.53756 7.96428 6.6614 7.84149C6.77221 7.73102 6.90827 7.55367 7.03197 7.40983C7.15567 7.26598 7.19637 7.16316 7.27857 6.99894C7.36077 6.83472 7.3198 6.69048 7.25802 6.56728C7.19624 6.44408 6.71647 5.22524 6.497 4.73781" fill="white"/>
<defs>
<linearGradient id="paint0_linear_4037_65143" x1="8.79659" y1="1.65001" x2="8.87955" y2="15.6623" gradientUnits="userSpaceOnUse">
<stop stop-color="#57D163"/>
<stop offset="1" stop-color="#23B33A"/>
</linearGradient>
</defs>
</svg>
