<svg width="138" height="138" viewBox="0 0 138 138" fill="none" xmlns="http://www.w3.org/2000/svg">
<g opacity="0.1" clip-path="url(#clip0_3582_6414)">
<path d="M76.871 -33.2499C79.2703 -33.4607 81.6913 -33.5625 84.1414 -33.5625C130.316 -33.5625 167.751 3.87275 167.751 50.047C167.751 52.4971 167.649 54.9182 167.438 57.3174H156.489C152.839 94.0547 121.838 122.751 84.1414 122.751C43.987 122.751 11.4375 90.2014 11.4375 50.047C11.4375 12.35 40.1337 -18.6509 76.871 -22.2934V-33.2499ZM76.871 57.3174V-7.66537C62.2046 -5.79918 48.799 1.58161 39.379 12.9769C29.959 24.3721 25.2315 38.9267 26.1573 53.6824C27.0831 68.4381 33.5928 82.2876 44.3633 92.4161C55.1337 102.545 69.3567 108.192 84.1414 108.21C98.3086 108.21 111.989 103.04 122.615 93.6693C133.24 84.2991 140.081 71.3732 141.854 57.3174H76.871ZM152.832 42.7766C151.165 27.0573 144.159 12.3849 132.981 1.20734C121.804 -9.97021 107.131 -16.9769 91.4118 -18.6437V42.7766H152.832Z" fill="#F86241"/>
</g>
<defs>
<clipPath id="clip0_3582_6414">
<rect width="183" height="183" fill="white" transform="translate(0 -45)"/>
</clipPath>
</defs>
</svg>
