<svg width="153" height="183" viewBox="0 0 153 183" fill="none" xmlns="http://www.w3.org/2000/svg">
<g opacity="0.1">
<path d="M162.412 112.087H135.923C135.316 112.087 134.735 111.846 134.306 111.417C133.877 110.988 133.636 110.406 133.636 109.799C133.636 109.193 133.877 108.611 134.306 108.182C134.735 107.753 135.316 107.512 135.923 107.512H160.125V44.4088L138.59 22.8743H22.8749V107.512H101.977C102.583 107.512 103.165 107.753 103.594 108.182C104.023 108.611 104.264 109.193 104.264 109.799C104.264 110.406 104.023 110.988 103.594 111.417C103.165 111.846 102.583 112.087 101.977 112.087H20.5874C19.9807 112.087 19.3989 111.846 18.9699 111.417C18.5409 110.988 18.2999 110.406 18.2999 109.799V20.5868C18.2999 19.9801 18.5409 19.3983 18.9699 18.9693C19.3989 18.5403 19.9807 18.2993 20.5874 18.2993H139.537C140.144 18.2994 140.726 18.5405 141.155 18.9696L164.03 41.8446C164.459 42.2734 164.7 42.8552 164.7 43.4618V109.799C164.7 110.406 164.459 110.988 164.03 111.417C163.601 111.846 163.019 112.087 162.412 112.087Z" fill="#2F80ED"/>
<path d="M162.413 45.7518H139.538C138.931 45.7518 138.349 45.5108 137.92 45.0818C137.491 44.6528 137.25 44.0709 137.25 43.4643V20.5893C137.25 19.9826 137.491 19.4007 137.92 18.9718C138.349 18.5428 138.931 18.3018 139.538 18.3018C140.144 18.3018 140.726 18.5428 141.155 18.9718C141.584 19.4007 141.825 19.9826 141.825 20.5893V41.1768H162.413C163.019 41.1768 163.601 41.4178 164.03 41.8468C164.459 42.2757 164.7 42.8576 164.7 43.4643C164.7 44.0709 164.459 44.6528 164.03 45.0818C163.601 45.5108 163.019 45.7518 162.413 45.7518ZM118.95 123.527C107.599 123.527 98.3625 114.29 98.3625 102.939C98.3625 91.5887 107.599 82.3518 118.95 82.3518C130.301 82.3518 139.538 91.5887 139.538 102.939C139.538 114.29 130.301 123.527 118.95 123.527ZM118.95 86.9268C110.12 86.9268 102.938 94.1095 102.938 102.939C102.938 111.769 110.12 118.952 118.95 118.952C127.78 118.952 134.963 111.769 134.963 102.939C134.963 94.1095 127.78 86.9268 118.95 86.9268Z" fill="#2F80ED"/>
<path d="M118.95 114.376C112.643 114.376 107.512 109.246 107.512 102.939C107.512 96.6323 112.643 91.5015 118.95 91.5015C125.256 91.5015 130.387 96.6323 130.387 102.939C130.387 109.246 125.256 114.376 118.95 114.376ZM118.95 96.0765C115.166 96.0765 112.087 99.1554 112.087 102.939C112.087 106.722 115.166 109.801 118.95 109.801C122.733 109.801 125.812 106.722 125.812 102.939C125.812 99.1554 122.733 96.0765 118.95 96.0765Z" fill="#2F80ED"/>
<path d="M132.674 162.414C132.244 162.414 131.823 162.292 131.459 162.064C131.095 161.835 130.803 161.509 130.616 161.122L118.949 136.936L107.283 161.122C107.082 161.539 106.758 161.885 106.355 162.115C105.952 162.344 105.489 162.446 105.027 162.406C104.566 162.366 104.127 162.187 103.769 161.892C103.411 161.598 103.151 161.201 103.024 160.756L99.2495 147.547L85.7715 155.25C85.3428 155.497 84.8453 155.598 84.354 155.538C83.8627 155.479 83.4041 155.261 83.0471 154.918C82.6901 154.575 82.454 154.126 82.3744 153.637C82.2948 153.149 82.3759 152.648 82.6056 152.209L102.736 113.436C102.874 113.17 103.064 112.933 103.294 112.739C103.524 112.546 103.79 112.4 104.076 112.309C104.363 112.218 104.664 112.185 104.964 112.211C105.263 112.236 105.555 112.321 105.821 112.46C106.088 112.598 106.325 112.788 106.519 113.018C106.712 113.248 106.858 113.514 106.949 113.8C107.04 114.087 107.073 114.388 107.047 114.688C107.021 114.987 106.937 115.279 106.798 115.545L90.2459 147.424L99.5148 142.128C99.8156 141.956 100.152 141.854 100.498 141.83C100.844 141.807 101.191 141.863 101.512 141.994C101.833 142.124 102.121 142.327 102.352 142.585C102.584 142.843 102.753 143.151 102.848 143.485L105.776 153.721L116.888 130.675C117.652 129.097 120.246 129.097 121.01 130.675L132.125 153.721L135.051 143.485C135.147 143.152 135.317 142.845 135.548 142.587C135.78 142.329 136.067 142.127 136.388 141.996C136.709 141.866 137.055 141.81 137.401 141.833C137.747 141.855 138.083 141.957 138.384 142.128L147.449 147.307L130.639 116.147C130.488 115.882 130.393 115.59 130.357 115.288C130.321 114.985 130.346 114.679 130.43 114.386C130.515 114.093 130.656 113.821 130.847 113.584C131.038 113.346 131.275 113.15 131.543 113.005C131.811 112.861 132.105 112.771 132.408 112.742C132.711 112.713 133.017 112.744 133.308 112.835C133.599 112.925 133.868 113.073 134.101 113.269C134.334 113.465 134.526 113.705 134.665 113.976L155.275 152.177C155.513 152.615 155.601 153.118 155.527 153.61C155.453 154.102 155.22 154.557 154.863 154.904C154.507 155.252 154.047 155.474 153.553 155.536C153.059 155.598 152.559 155.498 152.127 155.25L138.647 147.547L134.873 160.756C134.736 161.233 134.448 161.653 134.051 161.953C133.654 162.252 133.171 162.414 132.674 162.414ZM114.374 38.889H45.7494C45.1427 38.889 44.5609 38.648 44.1319 38.219C43.7029 37.79 43.4619 37.2081 43.4619 36.6015C43.4619 35.9948 43.7029 35.4129 44.1319 34.984C44.5609 34.555 45.1427 34.314 45.7494 34.314H114.374C114.981 34.314 115.563 34.555 115.992 34.984C116.421 35.4129 116.662 35.9948 116.662 36.6015C116.662 37.2081 116.421 37.79 115.992 38.219C115.563 38.648 114.981 38.889 114.374 38.889ZM114.374 52.614H45.7494C45.1427 52.614 44.5609 52.373 44.1319 51.944C43.7029 51.515 43.4619 50.9331 43.4619 50.3265C43.4619 49.7198 43.7029 49.1379 44.1319 48.709C44.5609 48.28 45.1427 48.039 45.7494 48.039H114.374C114.981 48.039 115.563 48.28 115.992 48.709C116.421 49.1379 116.662 49.7198 116.662 50.3265C116.662 50.9331 116.421 51.515 115.992 51.944C115.563 52.373 114.981 52.614 114.374 52.614ZM137.249 66.339H45.7494C45.1427 66.339 44.5609 66.098 44.1319 65.669C43.7029 65.24 43.4619 64.6581 43.4619 64.0515C43.4619 63.4448 43.7029 62.8629 44.1319 62.434C44.5609 62.005 45.1427 61.764 45.7494 61.764H137.249C137.856 61.764 138.438 62.005 138.867 62.434C139.296 62.8629 139.537 63.4448 139.537 64.0515C139.537 64.6581 139.296 65.24 138.867 65.669C138.438 66.098 137.856 66.339 137.249 66.339ZM137.249 80.064H45.7494C45.1427 80.064 44.5609 79.823 44.1319 79.394C43.7029 78.965 43.4619 78.3831 43.4619 77.7765C43.4619 77.1698 43.7029 76.5879 44.1319 76.159C44.5609 75.73 45.1427 75.489 45.7494 75.489H137.249C137.856 75.489 138.438 75.73 138.867 76.159C139.296 76.5879 139.537 77.1698 139.537 77.7765C139.537 78.3831 139.296 78.965 138.867 79.394C138.438 79.823 137.856 80.064 137.249 80.064ZM61.7619 93.789H45.7494C45.1427 93.789 44.5609 93.548 44.1319 93.119C43.7029 92.69 43.4619 92.1081 43.4619 91.5015C43.4619 90.8948 43.7029 90.3129 44.1319 89.884C44.5609 89.455 45.1427 89.214 45.7494 89.214H61.7619C62.3686 89.214 62.9504 89.455 63.3794 89.884C63.8084 90.3129 64.0494 90.8948 64.0494 91.5015C64.0494 92.1081 63.8084 92.69 63.3794 93.119C62.9504 93.548 62.3686 93.789 61.7619 93.789ZM80.0619 93.789C79.4672 93.789 78.8724 93.5373 78.4378 93.1256C78.026 92.691 77.7744 92.1191 77.7744 91.5015C77.7744 90.9067 78.026 90.312 78.4378 89.8773C79.2842 89.031 80.8168 89.031 81.686 89.8773C82.0978 90.312 82.3494 90.9067 82.3494 91.5015C82.3494 92.0962 82.0978 92.691 81.686 93.1256C81.2514 93.5373 80.6567 93.789 80.0619 93.789ZM89.2119 93.789C88.6172 93.789 88.0224 93.5373 87.5878 93.1256C87.176 92.691 86.9244 92.0962 86.9244 91.5015C86.9244 90.8838 87.176 90.312 87.5878 89.8773C88.4342 89.031 89.9897 89.031 90.836 89.8773C91.2478 90.312 91.4994 90.8838 91.4994 91.5015C91.4994 92.0962 91.2478 92.691 90.836 93.1256C90.4014 93.5373 89.8067 93.789 89.2119 93.789ZM118.949 105.226C118.355 105.226 117.76 104.975 117.325 104.563C116.914 104.128 116.662 103.534 116.662 102.939C116.662 102.344 116.914 101.749 117.325 101.315C118.172 100.468 119.704 100.468 120.574 101.315C120.985 101.749 121.237 102.344 121.237 102.939C121.237 103.534 120.985 104.128 120.574 104.563C120.139 104.975 119.544 105.226 118.949 105.226ZM70.9119 93.789C70.3172 93.789 69.7224 93.5373 69.2878 93.1256C68.876 92.691 68.6244 92.1191 68.6244 91.5015C68.6244 90.8838 68.876 90.312 69.2878 89.8773C70.1342 89.031 71.6897 89.031 72.536 89.8773C72.9478 90.312 73.1994 90.9067 73.1994 91.5015C73.1994 92.0962 72.9478 92.691 72.536 93.1256C72.1014 93.5373 71.5067 93.789 70.9119 93.789Z" fill="#2F80ED"/>
</g>
</svg>
