<svg width="57" height="56" viewBox="0 0 57 56" fill="none" xmlns="http://www.w3.org/2000/svg">
<path d="M50.3666 34.2999H42.2606C42.075 34.2999 41.8969 34.2261 41.7656 34.0948C41.6344 33.9636 41.5606 33.7855 41.5606 33.5999C41.5606 33.4142 41.6344 33.2362 41.7656 33.1049C41.8969 32.9736 42.075 32.8999 42.2606 32.8999H49.6666V13.5897L43.0768 6.99985H7.6666V32.8999H31.8726C32.0583 32.8999 32.2363 32.9736 32.3676 33.1049C32.4989 33.2362 32.5726 33.4142 32.5726 33.5999C32.5726 33.7855 32.4989 33.9636 32.3676 34.0948C32.2363 34.2261 32.0583 34.2999 31.8726 34.2999H6.9666C6.78095 34.2999 6.6029 34.2261 6.47163 34.0948C6.34035 33.9636 6.2666 33.7855 6.2666 33.5999V6.29985C6.2666 6.1142 6.34035 5.93615 6.47163 5.80488C6.6029 5.6736 6.78095 5.59985 6.9666 5.59985H43.3666C43.5522 5.59989 43.7303 5.67367 43.8615 5.80495L50.8615 12.805C50.9928 12.9362 51.0666 13.1142 51.0666 13.2999V33.5999C51.0666 33.7855 50.9929 33.9636 50.8616 34.0948C50.7303 34.2261 50.5523 34.2999 50.3666 34.2999Z" fill="#2F80ED"/>
<path d="M50.3666 14.0006H43.3666C43.181 14.0006 43.0029 13.9268 42.8716 13.7956C42.7404 13.6643 42.6666 13.4862 42.6666 13.3006V6.30059C42.6666 6.11493 42.7404 5.93689 42.8716 5.80561C43.0029 5.67434 43.181 5.60059 43.3666 5.60059C43.5523 5.60059 43.7303 5.67434 43.8616 5.80561C43.9929 5.93689 44.0666 6.11493 44.0666 6.30059V12.6006H50.3666C50.5523 12.6006 50.7303 12.6743 50.8616 12.8056C50.9929 12.9369 51.0666 13.1149 51.0666 13.3006C51.0666 13.4862 50.9929 13.6643 50.8616 13.7956C50.7303 13.9268 50.5523 14.0006 50.3666 14.0006ZM37.0666 37.8006C33.5932 37.8006 30.7666 34.974 30.7666 31.5006C30.7666 28.0272 33.5932 25.2006 37.0666 25.2006C40.54 25.2006 43.3666 28.0272 43.3666 31.5006C43.3666 34.974 40.54 37.8006 37.0666 37.8006ZM37.0666 26.6006C34.3646 26.6006 32.1666 28.7986 32.1666 31.5006C32.1666 34.2026 34.3646 36.4006 37.0666 36.4006C39.7686 36.4006 41.9666 34.2026 41.9666 31.5006C41.9666 28.7986 39.7686 26.6006 37.0666 26.6006Z" fill="#2F80ED"/>
<path d="M37.0665 35.0005C35.1366 35.0005 33.5665 33.4304 33.5665 31.5005C33.5665 29.5706 35.1366 28.0005 37.0665 28.0005C38.9964 28.0005 40.5665 29.5706 40.5665 31.5005C40.5665 33.4304 38.9964 35.0005 37.0665 35.0005ZM37.0665 29.4005C35.9087 29.4005 34.9665 30.3427 34.9665 31.5005C34.9665 32.6583 35.9087 33.6005 37.0665 33.6005C38.2243 33.6005 39.1665 32.6583 39.1665 31.5005C39.1665 30.3427 38.2243 29.4005 37.0665 29.4005Z" fill="#2F80ED"/>
<path d="M41.2664 49.7005C41.1349 49.7004 41.006 49.6633 40.8946 49.5933C40.7831 49.5234 40.6937 49.4235 40.6364 49.305L37.0664 41.9039L33.4964 49.305C33.4348 49.4327 33.3357 49.5387 33.2124 49.6089C33.0892 49.6791 32.9475 49.7102 32.8061 49.698C32.6648 49.6859 32.5305 49.6311 32.421 49.5409C32.3115 49.4507 32.232 49.3294 32.193 49.193L31.038 45.1512L26.9136 47.5081C26.7824 47.5838 26.6302 47.6148 26.4799 47.5965C26.3295 47.5782 26.1892 47.5116 26.0799 47.4067C25.9707 47.3018 25.8984 47.1643 25.8741 47.0148C25.8497 46.8653 25.8745 46.7119 25.9448 46.5778L32.1048 34.7128C32.1472 34.6312 32.2053 34.5587 32.2756 34.4995C32.346 34.4403 32.4274 34.3955 32.5151 34.3678C32.6028 34.34 32.6951 34.3298 32.7867 34.3377C32.8783 34.3456 32.9675 34.3715 33.0491 34.4139C33.1308 34.4563 33.2032 34.5143 33.2624 34.5847C33.3216 34.6551 33.3664 34.7364 33.3942 34.8241C33.4219 34.9118 33.4321 35.0041 33.4242 35.0957C33.4163 35.1874 33.3904 35.2766 33.348 35.3582L28.2828 45.1134L31.1192 43.4929C31.2113 43.44 31.3142 43.4089 31.4201 43.4017C31.526 43.3946 31.6321 43.4117 31.7304 43.4517C31.8287 43.4917 31.9166 43.5536 31.9875 43.6326C32.0583 43.7117 32.1102 43.8059 32.1391 43.908L33.0351 47.0405L36.4357 39.988C36.6695 39.505 37.4633 39.505 37.6971 39.988L41.0984 47.0405L41.9937 43.908C42.023 43.806 42.075 43.7121 42.1458 43.6331C42.2167 43.5542 42.3045 43.4925 42.4028 43.4525C42.501 43.4125 42.607 43.3954 42.7129 43.4024C42.8187 43.4094 42.9215 43.4403 43.0136 43.4929L45.7877 45.0777L40.6434 35.5423C40.5975 35.4612 40.5682 35.3718 40.5572 35.2793C40.5463 35.1868 40.5539 35.093 40.5797 35.0034C40.6055 34.9139 40.6489 34.8304 40.7073 34.7579C40.7658 34.6853 40.8382 34.6252 40.9202 34.5809C41.0022 34.5367 41.0922 34.5093 41.1849 34.5003C41.2777 34.4914 41.3713 34.501 41.4602 34.5286C41.5492 34.5563 41.6318 34.6015 41.7031 34.6614C41.7744 34.7214 41.833 34.7951 41.8754 34.878L48.1824 46.568C48.2552 46.7018 48.2823 46.8557 48.2595 47.0064C48.2368 47.157 48.1655 47.2961 48.0565 47.4024C47.9475 47.5088 47.8067 47.5767 47.6556 47.5958C47.5045 47.6149 47.3513 47.5841 47.2192 47.5081L43.0941 45.1512L41.9391 49.193C41.8973 49.3392 41.8091 49.4677 41.6877 49.5593C41.5663 49.6509 41.4185 49.7004 41.2664 49.7005ZM35.6664 11.9005H14.6664C14.4808 11.9005 14.3027 11.8267 14.1715 11.6955C14.0402 11.5642 13.9664 11.3861 13.9664 11.2005C13.9664 11.0148 14.0402 10.8368 14.1715 10.7055C14.3027 10.5742 14.4808 10.5005 14.6664 10.5005H35.6664C35.8521 10.5005 36.0301 10.5742 36.1614 10.7055C36.2927 10.8368 36.3664 11.0148 36.3664 11.2005C36.3664 11.3861 36.2927 11.5642 36.1614 11.6955C36.0301 11.8267 35.8521 11.9005 35.6664 11.9005ZM35.6664 16.1005H14.6664C14.4808 16.1005 14.3027 16.0267 14.1715 15.8955C14.0402 15.7642 13.9664 15.5861 13.9664 15.4005C13.9664 15.2148 14.0402 15.0368 14.1715 14.9055C14.3027 14.7742 14.4808 14.7005 14.6664 14.7005H35.6664C35.8521 14.7005 36.0301 14.7742 36.1614 14.9055C36.2927 15.0368 36.3664 15.2148 36.3664 15.4005C36.3664 15.5861 36.2927 15.7642 36.1614 15.8955C36.0301 16.0267 35.8521 16.1005 35.6664 16.1005ZM42.6664 20.3005H14.6664C14.4808 20.3005 14.3027 20.2267 14.1715 20.0955C14.0402 19.9642 13.9664 19.7861 13.9664 19.6005C13.9664 19.4148 14.0402 19.2368 14.1715 19.1055C14.3027 18.9742 14.4808 18.9005 14.6664 18.9005H42.6664C42.8521 18.9005 43.0301 18.9742 43.1614 19.1055C43.2927 19.2368 43.3664 19.4148 43.3664 19.6005C43.3664 19.7861 43.2927 19.9642 43.1614 20.0955C43.0301 20.2267 42.8521 20.3005 42.6664 20.3005ZM42.6664 24.5005H14.6664C14.4808 24.5005 14.3027 24.4267 14.1715 24.2955C14.0402 24.1642 13.9664 23.9861 13.9664 23.8005C13.9664 23.6148 14.0402 23.4368 14.1715 23.3055C14.3027 23.1742 14.4808 23.1005 14.6664 23.1005H42.6664C42.8521 23.1005 43.0301 23.1742 43.1614 23.3055C43.2927 23.4368 43.3664 23.6148 43.3664 23.8005C43.3664 23.9861 43.2927 24.1642 43.1614 24.2955C43.0301 24.4267 42.8521 24.5005 42.6664 24.5005ZM19.5664 28.7005H14.6664C14.4808 28.7005 14.3027 28.6267 14.1715 28.4955C14.0402 28.3642 13.9664 28.1861 13.9664 28.0005C13.9664 27.8148 14.0402 27.6368 14.1715 27.5055C14.3027 27.3742 14.4808 27.3005 14.6664 27.3005H19.5664C19.7521 27.3005 19.9301 27.3742 20.0614 27.5055C20.1927 27.6368 20.2664 27.8148 20.2664 28.0005C20.2664 28.1861 20.1927 28.3642 20.0614 28.4955C19.9301 28.6267 19.7521 28.7005 19.5664 28.7005ZM25.1664 28.7005C24.9844 28.7005 24.8024 28.6235 24.6694 28.4975C24.5434 28.3645 24.4664 28.1895 24.4664 28.0005C24.4664 27.8185 24.5434 27.6365 24.6694 27.5035C24.9284 27.2445 25.3974 27.2445 25.6634 27.5035C25.7894 27.6365 25.8664 27.8185 25.8664 28.0005C25.8664 28.1825 25.7894 28.3645 25.6634 28.4975C25.5304 28.6235 25.3484 28.7005 25.1664 28.7005ZM27.9664 28.7005C27.7844 28.7005 27.6024 28.6235 27.4694 28.4975C27.3434 28.3645 27.2664 28.1825 27.2664 28.0005C27.2664 27.8115 27.3434 27.6365 27.4694 27.5035C27.7284 27.2445 28.2044 27.2445 28.4634 27.5035C28.5894 27.6365 28.6664 27.8115 28.6664 28.0005C28.6664 28.1825 28.5894 28.3645 28.4634 28.4975C28.3304 28.6235 28.1484 28.7005 27.9664 28.7005ZM37.0664 32.2005C36.8844 32.2005 36.7024 32.1235 36.5694 31.9975C36.4434 31.8645 36.3664 31.6825 36.3664 31.5005C36.3664 31.3185 36.4434 31.1365 36.5694 31.0035C36.8284 30.7445 37.2974 30.7445 37.5634 31.0035C37.6894 31.1365 37.7664 31.3185 37.7664 31.5005C37.7664 31.6825 37.6894 31.8645 37.5634 31.9975C37.4304 32.1235 37.2484 32.2005 37.0664 32.2005ZM22.3664 28.7005C22.1844 28.7005 22.0024 28.6235 21.8694 28.4975C21.7434 28.3645 21.6664 28.1895 21.6664 28.0005C21.6664 27.8115 21.7434 27.6365 21.8694 27.5035C22.1284 27.2445 22.6044 27.2445 22.8634 27.5035C22.9894 27.6365 23.0664 27.8185 23.0664 28.0005C23.0664 28.1825 22.9894 28.3645 22.8634 28.4975C22.7304 28.6235 22.5484 28.7005 22.3664 28.7005Z" fill="#2F80ED"/>
</svg>
