<svg width="157" height="183" viewBox="0 0 157 183" fill="none" xmlns="http://www.w3.org/2000/svg">
<g opacity="0.1">
<path d="M164.699 26.5326C164.699 21.9576 161.039 18.2976 156.464 18.2976H73.428C68.853 18.2976 65.193 21.9576 65.193 26.5326V75.7138C65.193 80.2888 68.853 83.9488 73.428 83.9488H75.4867C76.8592 83.9488 77.7742 83.0338 77.7742 81.6613C77.7742 80.2888 76.8592 79.3738 75.4867 79.3738H73.428C71.3692 79.3738 69.768 77.7726 69.768 75.7138V26.5326C69.768 24.4739 71.3692 22.8726 73.428 22.8726H156.464C158.523 22.8726 160.124 24.4739 160.124 26.5326V75.7138C160.124 77.7726 158.523 79.3738 156.464 79.3738H103.165C101.793 79.3738 100.878 80.2888 100.878 81.6613C100.878 83.0338 101.793 83.9488 103.165 83.9488H156.464C161.039 83.9488 164.699 80.2888 164.699 75.7138V26.5326Z" fill="#FF4405"/>
<path d="M122.381 30.8786C119.965 29.9817 117.409 29.5171 114.832 29.5061C102.937 29.5061 93.1008 39.3424 93.1008 51.2373C93.1008 63.1323 102.937 72.9686 114.832 72.9686C126.727 72.9686 136.563 63.1323 136.563 51.2373C136.563 46.4336 134.962 41.8586 132.217 38.1986C131.531 37.2836 129.93 37.0549 129.015 37.7411C128.1 38.4274 127.871 40.0286 128.557 40.9436C130.845 43.9173 131.988 47.5773 131.988 51.2373C131.988 60.6161 124.211 68.3936 114.832 68.3936C105.453 68.3936 97.6758 60.6161 97.6758 51.2373C97.6758 41.8586 105.453 34.0811 114.832 34.0811C116.891 34.0811 118.95 34.5386 120.78 35.2249C121.923 35.6824 123.296 34.9961 123.753 33.8524C124.211 32.7086 123.753 31.3361 122.381 30.8786Z" fill="#FF4405"/>
<path d="M108.656 41.8593V60.388C108.656 62.218 110.943 63.3618 112.316 62.218L124.439 52.8393C125.583 51.9243 125.583 50.0943 124.439 49.1793L112.316 39.8006C110.943 38.8856 108.656 40.0293 108.656 41.8593ZM113.231 46.663L119.178 51.238L113.231 55.813V46.663ZM152.804 132.444C152.804 126.497 148.001 121.693 142.282 121.693C136.334 121.693 131.531 126.497 131.531 132.444C131.531 138.392 136.334 142.967 142.282 142.967C148.001 143.196 152.804 138.392 152.804 132.444ZM136.106 132.444C136.106 129.013 138.851 126.268 142.282 126.268C145.713 126.268 148.229 129.013 148.229 132.444C148.229 135.876 145.484 138.392 142.282 138.392C138.851 138.621 136.106 135.876 136.106 132.444Z" fill="#FF4405"/>
<path d="M162.183 164.699C163.555 164.699 164.47 163.784 164.47 162.411V159.437C164.47 153.261 159.438 148.457 153.49 148.457H131.073C130.387 148.457 129.7 148.457 129.243 148.686V148C129.243 141.824 124.21 137.02 118.263 137.02H95.8453C89.6691 137.02 84.8653 142.052 84.8653 148V150.974C84.8653 152.346 85.7803 153.261 87.1528 153.261C88.5253 153.261 89.4403 152.346 89.4403 150.974V148C89.4403 144.34 92.414 141.595 95.8453 141.595H118.263C121.923 141.595 124.668 144.569 124.668 148V150.516C121.923 152.575 120.093 155.777 120.093 159.437V162.411C120.093 163.784 121.008 164.699 122.38 164.699C123.753 164.699 124.668 163.784 124.668 162.411V159.437C124.668 155.777 127.642 153.032 131.073 153.032H153.262C156.922 153.032 159.667 156.006 159.667 159.437V162.411C159.895 163.784 160.81 164.699 162.183 164.699ZM106.597 131.759C112.544 131.759 117.119 126.955 117.119 121.236C117.119 115.289 112.315 110.485 106.597 110.485C100.649 110.485 95.8453 115.289 95.8453 121.236C96.0741 126.955 100.878 131.759 106.597 131.759ZM106.597 115.06C110.028 115.06 112.544 117.805 112.544 121.236C112.544 124.667 109.799 127.184 106.597 127.184C103.165 127.184 100.42 124.439 100.42 121.236C100.649 117.805 103.394 115.06 106.597 115.06ZM25.3903 144.34C26.3053 144.34 26.9916 144.111 27.9066 143.882V155.549C27.9066 160.581 32.0241 164.699 37.0566 164.699C39.8016 164.699 42.3178 163.555 43.9191 161.496C45.5203 163.326 48.0366 164.699 50.7816 164.699C55.8141 164.699 59.9316 160.581 59.9316 155.549V107.282H75.4866C78.0028 107.282 80.5191 106.367 82.1203 104.537L95.159 93.786C97.2178 91.7273 97.6753 88.7535 96.5315 86.0085C94.4728 81.6623 88.754 80.5185 85.3228 83.721C77.3166 89.8973 75.0291 91.7273 74.8003 91.956C73.8853 92.871 72.5128 93.3285 71.1403 93.3285H28.8216C23.1028 93.5573 18.2991 98.361 18.2991 104.08V137.249C18.2991 141.137 21.5016 144.34 25.3903 144.34ZM22.8741 104.08C22.8741 100.877 25.6191 98.1323 28.8216 98.1323H71.1403C73.6566 98.1323 75.9441 97.2173 77.7741 95.3873C86.6953 88.5248 88.0678 87.381 88.2965 87.1523C89.4403 86.0085 91.499 86.2373 92.1853 87.8385C92.6428 88.7535 92.414 89.6685 91.9566 90.3548L78.9178 101.106C78.0028 102.021 76.6303 102.479 75.2578 102.479H57.6441C56.2716 102.479 55.3566 103.394 55.3566 104.766V126.04H39.3441C37.9716 126.04 37.0566 126.955 37.0566 128.327C37.0566 129.7 37.9716 130.615 39.3441 130.615H55.3566V155.091C55.3566 157.607 53.2978 159.666 50.7816 159.666C48.2653 159.666 46.2066 157.607 46.2066 155.091V139.079C46.2066 137.706 45.2916 136.791 43.9191 136.791C42.5466 136.791 41.6316 137.706 41.6316 139.079V155.091C41.6316 157.607 39.5728 159.666 37.0566 159.666C34.5403 159.666 32.4816 157.607 32.4816 155.091V109.57C32.4816 108.197 31.5666 107.282 30.1941 107.282C28.8216 107.282 27.9066 108.197 27.9066 109.57V136.791C27.9066 138.164 26.7628 139.307 25.3903 139.307C24.0178 139.765 22.8741 138.621 22.8741 137.249V104.08ZM43.6903 63.1335C36.5991 63.1335 30.8803 68.8523 30.8803 75.9435C30.8803 83.0348 36.5991 88.7535 43.6903 88.7535C50.7816 88.7535 56.5003 83.0348 56.5003 75.9435C56.5003 68.8523 50.7816 63.1335 43.6903 63.1335ZM43.6903 83.9498C39.1153 83.9498 35.4553 80.2898 35.4553 75.7148C35.4553 71.1398 39.1153 67.4798 43.6903 67.4798C48.2653 67.4798 51.9253 71.1398 51.9253 75.7148C51.9253 80.2898 48.2653 83.9498 43.6903 83.9498Z" fill="#FF4405"/>
</g>
</svg>
