<svg width="57" height="56" viewBox="0 0 57 56" fill="none" xmlns="http://www.w3.org/2000/svg">
<path d="M50.7329 8.11912C50.7329 6.71912 49.6129 5.59912 48.2129 5.59912H22.803C21.403 5.59912 20.283 6.71912 20.283 8.11912V23.1691C20.283 24.5691 21.403 25.6891 22.803 25.6891H23.433C23.853 25.6891 24.133 25.4091 24.133 24.9891C24.133 24.5691 23.853 24.2891 23.433 24.2891H22.803C22.173 24.2891 21.683 23.7991 21.683 23.1691V8.11912C21.683 7.48912 22.173 6.99912 22.803 6.99912H48.2129C48.8429 6.99912 49.3329 7.48912 49.3329 8.11912V23.1691C49.3329 23.7991 48.8429 24.2891 48.2129 24.2891H31.903C31.483 24.2891 31.203 24.5691 31.203 24.9891C31.203 25.4091 31.483 25.6891 31.903 25.6891H48.2129C49.6129 25.6891 50.7329 24.5691 50.7329 23.1691V8.11912Z" fill="#FF4405"/>
<path d="M37.783 9.44905C37.0436 9.17458 36.2617 9.03241 35.473 9.02905C31.833 9.02905 28.823 12.0391 28.823 15.6791C28.823 19.319 31.833 22.329 35.473 22.329C39.113 22.329 42.123 19.319 42.123 15.6791C42.123 14.2091 41.633 12.8091 40.793 11.6891C40.583 11.4091 40.093 11.3391 39.813 11.5491C39.533 11.7591 39.463 12.2491 39.673 12.5291C40.373 13.4391 40.723 14.5591 40.723 15.6791C40.723 18.549 38.343 20.929 35.473 20.929C32.603 20.929 30.223 18.549 30.223 15.6791C30.223 12.8091 32.603 10.4291 35.473 10.4291C36.103 10.4291 36.733 10.5691 37.293 10.7791C37.643 10.9191 38.063 10.7091 38.203 10.3591C38.343 10.0091 38.203 9.58905 37.783 9.44905Z" fill="#FF4405"/>
<path d="M33.583 12.8094V18.4794C33.583 19.0394 34.283 19.3894 34.703 19.0394L38.413 16.1694C38.763 15.8894 38.763 15.3294 38.413 15.0494L34.703 12.1794C34.283 11.8994 33.583 12.2494 33.583 12.8094ZM34.983 14.2794L36.803 15.6794L34.983 17.0794V14.2794ZM47.093 40.5293C47.093 38.7093 45.623 37.2393 43.873 37.2393C42.053 37.2393 40.583 38.7093 40.583 40.5293C40.583 42.3493 42.053 43.7493 43.873 43.7493C45.623 43.8193 47.093 42.3493 47.093 40.5293ZM41.983 40.5293C41.983 39.4793 42.823 38.6393 43.873 38.6393C44.923 38.6393 45.693 39.4793 45.693 40.5293C45.693 41.5793 44.853 42.3493 43.873 42.3493C42.823 42.4193 41.983 41.5793 41.983 40.5293Z" fill="#FF4405"/>
<path d="M49.9628 50.3996C50.3829 50.3996 50.6628 50.1196 50.6628 49.6996V48.7896C50.6628 46.8996 49.1228 45.4296 47.3028 45.4296H40.4429C40.2329 45.4296 40.0229 45.4296 39.8829 45.4996V45.2896C39.8829 43.3996 38.3429 41.9296 36.5229 41.9296H29.6629C27.7729 41.9296 26.3029 43.4696 26.3029 45.2896V46.1996C26.3029 46.6196 26.5829 46.8996 27.0029 46.8996C27.4229 46.8996 27.7029 46.6196 27.7029 46.1996V45.2896C27.7029 44.1696 28.6129 43.3296 29.6629 43.3296H36.5229C37.6429 43.3296 38.4829 44.2396 38.4829 45.2896V46.0596C37.6429 46.6896 37.0829 47.6696 37.0829 48.7896V49.6996C37.0829 50.1196 37.3629 50.3996 37.7829 50.3996C38.2029 50.3996 38.4829 50.1196 38.4829 49.6996V48.7896C38.4829 47.6696 39.3929 46.8296 40.4429 46.8296H47.2328C48.3528 46.8296 49.1928 47.7396 49.1928 48.7896V49.6996C49.2628 50.1196 49.5429 50.3996 49.9628 50.3996ZM32.9529 40.3196C34.7729 40.3196 36.1729 38.8496 36.1729 37.0996C36.1729 35.2796 34.7029 33.8096 32.9529 33.8096C31.1329 33.8096 29.6629 35.2796 29.6629 37.0996C29.7329 38.8496 31.2029 40.3196 32.9529 40.3196ZM32.9529 35.2096C34.0029 35.2096 34.7729 36.0496 34.7729 37.0996C34.7729 38.1496 33.9329 38.9196 32.9529 38.9196C31.9029 38.9196 31.0629 38.0796 31.0629 37.0996C31.1329 36.0496 31.9729 35.2096 32.9529 35.2096ZM8.10286 44.1696C8.38286 44.1696 8.59286 44.0996 8.87286 44.0296V47.5996C8.87286 49.1396 10.1329 50.3996 11.6729 50.3996C12.5129 50.3996 13.2829 50.0496 13.7729 49.4196C14.2629 49.9796 15.0329 50.3996 15.8729 50.3996C17.4129 50.3996 18.6729 49.1396 18.6729 47.5996V32.8296H23.4329C24.2029 32.8296 24.9729 32.5496 25.4629 31.9896L29.4529 28.6996C30.0829 28.0696 30.2229 27.1596 29.8729 26.3196C29.2429 24.9896 27.4929 24.6396 26.4429 25.6196C23.9929 27.5096 23.2929 28.0696 23.2229 28.1396C22.9429 28.4196 22.5229 28.5596 22.1029 28.5596H9.15286C7.40286 28.6296 5.93286 30.0996 5.93286 31.8496V41.9996C5.93286 43.1896 6.91286 44.1696 8.10286 44.1696ZM7.33286 31.8496C7.33286 30.8696 8.17286 30.0296 9.15286 30.0296H22.1029C22.8729 30.0296 23.5729 29.7496 24.1329 29.1896C26.8629 27.0896 27.2829 26.7396 27.3529 26.6696C27.7029 26.3196 28.3329 26.3896 28.5429 26.8796C28.6829 27.1596 28.6129 27.4396 28.4729 27.6496L24.4829 30.9396C24.2029 31.2196 23.7829 31.3596 23.3629 31.3596H17.9729C17.5529 31.3596 17.2729 31.6396 17.2729 32.0596V38.5696H12.3729C11.9529 38.5696 11.6729 38.8496 11.6729 39.2696C11.6729 39.6896 11.9529 39.9696 12.3729 39.9696H17.2729V47.4596C17.2729 48.2296 16.6429 48.8596 15.8729 48.8596C15.1029 48.8596 14.4729 48.2296 14.4729 47.4596V42.5596C14.4729 42.1396 14.1929 41.8596 13.7729 41.8596C13.3529 41.8596 13.0729 42.1396 13.0729 42.5596V47.4596C13.0729 48.2296 12.4429 48.8596 11.6729 48.8596C10.9029 48.8596 10.2729 48.2296 10.2729 47.4596V33.5296C10.2729 33.1096 9.99286 32.8296 9.57286 32.8296C9.15286 32.8296 8.87286 33.1096 8.87286 33.5296V41.8596C8.87286 42.2796 8.52286 42.6296 8.10286 42.6296C7.68286 42.7696 7.33286 42.4196 7.33286 41.9996V31.8496ZM13.7029 19.3196C11.5329 19.3196 9.78286 21.0696 9.78286 23.2396C9.78286 25.4096 11.5329 27.1596 13.7029 27.1596C15.8729 27.1596 17.6229 25.4096 17.6229 23.2396C17.6229 21.0696 15.8729 19.3196 13.7029 19.3196ZM13.7029 25.6896C12.3029 25.6896 11.1829 24.5696 11.1829 23.1696C11.1829 21.7696 12.3029 20.6496 13.7029 20.6496C15.1029 20.6496 16.2229 21.7696 16.2229 23.1696C16.2229 24.5696 15.1029 25.6896 13.7029 25.6896Z" fill="#FF4405"/>
</svg>
