<svg width="147" height="166" viewBox="0 0 147 166" fill="none" xmlns="http://www.w3.org/2000/svg">
<g opacity="0.1">
<path d="M31.521 85.728C30.2327 81.5995 31.016 78.9351 31.7205 78.4245C32.1101 78.1431 32.4404 77.7877 32.6926 77.3786C32.9448 76.9696 33.114 76.5148 33.1904 76.0404C33.2669 75.5659 33.2492 75.0811 33.1383 74.6135C33.0273 74.1459 32.8254 73.7047 32.544 73.3151C32.2626 72.9256 31.9072 72.5953 31.4981 72.3431C31.0891 72.0908 30.6343 71.9217 30.1599 71.8452C29.6854 71.7687 29.2006 71.7865 28.733 71.8974C28.2654 72.0083 27.8242 72.2102 27.4346 72.4916C23.6118 75.2531 22.4735 81.3049 24.5359 87.9076C24.8253 88.8341 25.4707 89.6078 26.3303 90.0587C27.1899 90.5096 28.1933 90.6008 29.1201 90.3122C30.0462 90.0225 30.8194 89.3768 31.2697 88.5172C31.7199 87.6576 31.8103 86.6543 31.521 85.728Z" fill="#2F80ED"/>
<path d="M144.493 1.59067H144.489C144.387 1.62544 144.28 1.64375 144.18 1.68218C144.077 1.71512 143.979 1.76452 143.876 1.80112C143.849 1.81393 143.819 1.81759 143.79 1.8304L143.728 1.85969C143.341 2.00791 142.964 2.1809 142.599 2.37758L100.11 21.8598C97.6777 20.2457 94.8137 19.9547 92.098 21.201L73.5748 29.694C70.9213 30.9091 70.0246 32.7757 69.7391 34.1281C69.6293 34.6847 69.6015 35.2544 69.6567 35.819L21.6851 57.8156C21.357 57.9482 21.0351 58.096 20.7207 58.2585L19.9338 58.619C19.5312 58.8038 19.1872 59.0618 18.8907 59.3564C18.3929 59.4406 17.9025 59.6236 17.456 59.9256C7.77161 66.4715 6.32408 82.6633 14.162 96.7873C19.738 106.838 28.3152 114.094 37.1083 116.196C38.8944 116.623 40.6476 116.837 42.3513 116.837C46.0278 116.837 49.4682 115.819 52.5224 113.872L85.5594 98.7252C85.7845 99.2322 86.0078 99.8269 86.2164 100.391C87.0381 102.619 88.061 105.392 90.709 106.88C91.8528 107.522 93.1942 107.848 94.6966 107.848C95.5948 107.833 96.49 107.739 97.3721 107.57C98.6201 112.734 98.6366 118.149 98.6348 123.829C98.6329 130.953 98.6329 138.321 101.197 145.575C101.417 146.193 101.798 146.74 102.302 147.161C102.805 147.581 103.412 147.858 104.06 147.963C104.707 148.069 105.37 147.999 105.981 147.76C106.592 147.521 107.128 147.123 107.532 146.607C109.827 143.668 112.598 140.532 116.141 136.872C120.352 139.627 124.681 142.198 129.115 144.578C129.766 144.927 130.508 145.071 131.242 144.991C131.976 144.911 132.669 144.611 133.23 144.13C133.79 143.649 134.192 143.009 134.382 142.296C134.573 141.582 134.543 140.827 134.296 140.131C132.149 134.063 132.151 127.632 132.151 120.826C132.153 114.793 132.137 108.585 130.579 102.42C130.665 102.349 130.755 102.294 130.837 102.217C133.116 100.122 133.467 97.1514 133.749 94.767C133.87 93.7403 134.021 92.4648 134.298 91.9744C134.585 91.4638 135.608 90.6604 136.432 90.0144C138.309 88.5413 140.646 86.7058 141.25 83.7064C141.852 80.729 140.416 78.1432 139.264 76.0662C138.97 75.547 138.692 75.0191 138.43 74.4832L160.051 64.5683C166.092 61.7977 169.871 55.7861 169.452 49.5861C169.351 48.2881 169.205 46.9941 169.013 45.7065C175.268 40.6575 175.553 28.7424 169.571 17.6251C162.943 5.32937 152.623 -1.17812 144.493 1.59067ZM95.1468 27.8548C95.3609 27.7597 95.93 27.498 96.878 28.7351C100.545 33.5297 103.137 38.1651 104.738 42.7529C104.352 42.7327 103.965 42.7443 103.581 42.7876C100.602 43.1335 98.6037 45.2801 96.9969 47.0039C96.2247 47.8329 95.3499 48.7717 94.7625 49.0407C94.1751 49.3098 92.8922 49.361 91.7595 49.4049C90.0704 49.4708 88.0867 49.5605 86.2859 50.3492C84.838 46.3923 82.7759 42.6882 80.1756 39.3729C79.8267 38.9375 79.4648 38.5127 79.0904 38.0992C78.6025 37.5552 78.1331 36.9949 77.6831 36.4192C77.6557 36.346 77.641 36.271 77.6081 36.1996C77.5696 36.1136 77.5129 36.0423 77.469 35.9617L95.1468 27.8548ZM49.3748 107.26C49.2504 107.317 49.1424 107.394 49.029 107.463C48.9722 107.496 48.9137 107.518 48.8588 107.555C45.3104 109.954 41.4326 109.709 38.8066 109.079C31.977 107.445 25.1548 101.523 20.5578 93.2371C14.7439 82.7603 15.1996 70.2834 21.5497 65.9902C21.643 65.928 21.718 65.8493 21.8041 65.7779C22.3695 65.6956 22.9277 65.4961 23.4236 65.1374C23.6414 64.98 23.8756 64.8666 24.1099 64.7531L24.463 64.5903C25.3982 64.2389 26.4669 64.195 27.7076 64.4804C32.2168 65.5144 37.4341 70.4609 41.0008 77.08C45.3342 85.1265 45.261 93.5628 42.3367 95.9729L41.5168 96.3481C40.1352 96.5549 37.7617 95.4056 35.4394 92.7027C34.7962 92.0049 33.9073 91.584 32.9599 91.5288C32.0125 91.4735 31.0807 91.7883 30.3608 92.4066C29.6409 93.0249 29.1892 93.8986 29.1008 94.8435C29.0125 95.7883 29.2944 96.7306 29.8872 97.4717C33.3843 101.543 37.5091 103.717 41.2533 103.717C41.9103 103.717 42.5489 103.626 43.1766 103.491C44.1445 103.281 45.0693 102.907 45.9106 102.385L75.6719 88.7389C75.7451 89.5697 75.93 90.4097 76.3143 91.2497C76.8011 92.2934 77.5144 93.2155 78.4023 93.9489L49.3748 107.26ZM78.6786 63.8436C76.8029 65.3168 74.466 67.1523 73.8602 70.1498C73.2582 73.1272 74.6947 75.713 75.8458 77.79C76.2923 78.5916 76.7681 79.4663 76.9676 80.094L51.6568 91.6999C52.1802 86.316 50.8004 79.8396 47.446 73.6103C44.1191 67.4322 39.7161 62.5773 35.0423 59.7407L73.0532 42.3118C73.2435 42.5296 73.432 42.7474 73.6095 42.9468C73.9188 43.2964 74.2006 43.6111 74.4111 43.8783C77.5587 47.9043 79.6979 52.4537 80.5965 57.036C80.7227 57.6783 81.0119 58.2456 81.409 58.7086L81.3632 59.0874C81.2424 60.1122 81.0906 61.3878 80.8142 61.88C80.5251 62.3943 79.5021 63.1976 78.6786 63.8436ZM117.672 129.114C116.966 128.642 116.118 128.429 115.272 128.513C114.427 128.597 113.637 128.972 113.037 129.574C110.803 131.81 108.626 134.103 106.509 136.451C105.946 132.395 105.946 128.19 105.947 123.829C105.949 119.02 105.929 114.099 105.14 109.178C106.703 110.172 108.544 111.118 110.693 111.118C110.967 111.118 111.245 111.103 111.522 111.07C114.501 110.725 116.499 108.578 118.104 106.854C118.876 106.025 119.751 105.086 120.339 104.815C120.926 104.546 122.209 104.497 123.34 104.453L123.532 104.444C124.809 109.645 124.824 115.1 124.824 120.824C124.824 125.169 124.822 129.603 125.402 134.048C122.786 132.466 120.208 130.821 117.672 129.114ZM131.904 84.2573C130.501 85.3589 128.91 86.607 127.909 88.3894C126.917 90.1535 126.681 92.1482 126.473 93.905C126.37 94.7724 126.204 96.1578 125.984 96.6592C125.618 96.6673 125.255 96.7309 124.908 96.8477C124.745 96.9044 124.599 96.9867 124.451 97.0636C123.964 97.1002 123.451 97.1222 123.054 97.1368C121.244 97.2082 119.191 97.2869 117.286 98.1598C115.379 99.0345 113.979 100.537 112.746 101.864C112.12 102.535 111.077 103.655 110.68 103.796C110.189 103.772 108.863 102.879 108.068 102.343C106.601 101.353 104.935 100.231 102.952 99.8306C102.355 99.7129 101.748 99.6553 101.14 99.6585C100.931 99.6585 100.73 99.697 100.521 99.7079C99.9164 99.6025 99.2945 99.6516 98.7135 99.8507C98.6641 99.869 98.622 99.8964 98.5744 99.9166C98.1114 99.9953 97.6429 100.076 97.2147 100.16C96.2594 100.348 95.3554 100.526 94.6911 100.526C94.4368 100.526 94.3105 100.493 94.3068 100.504C93.939 100.184 93.4028 98.7289 93.0807 97.856C92.4604 96.1761 91.7595 94.2692 90.3632 92.7521C89.823 92.185 89.213 91.6888 88.5478 91.2753C88.4691 91.2204 88.3923 91.1637 88.3081 91.1143C87.4169 90.5653 86.4872 90.1206 85.6143 89.7198C84.7725 89.3319 83.2042 88.6108 82.9736 88.2027C82.8126 87.7526 83.2866 86.0946 83.5446 85.2034C84.0277 83.5198 84.5749 81.6093 84.3443 79.6237C84.1064 77.5778 83.1219 75.8027 82.2508 74.238C81.7933 73.4145 81.0302 72.0384 81.032 71.6229C81.1967 71.1746 82.4521 70.1882 83.2024 69.6008C84.606 68.4991 86.1963 67.2492 87.1973 65.4687C88.1891 63.7027 88.4252 61.7098 88.6338 59.9512C88.7491 58.9905 88.9394 57.3837 89.1938 57.058C89.5927 56.8146 91.1318 56.7542 92.0504 56.7176C93.8621 56.6462 95.9154 56.5675 97.8204 55.6928C99.7254 54.8199 101.125 53.3175 102.361 51.9907C102.988 51.3173 104.039 50.19 104.418 50.0582C104.87 50.0655 106.079 50.8634 106.888 51.4088C107.203 51.9943 107.671 52.4825 108.244 52.8205C108.816 53.1586 109.47 53.3336 110.134 53.3266C110.775 53.6212 111.439 53.8793 112.157 54.0238C113.95 54.3862 116.135 54.0403 117.897 53.6944C118.853 53.5059 119.757 53.3284 120.421 53.3284C120.677 53.3284 120.803 53.3541 120.805 53.3504C121.173 53.6706 121.709 55.1255 122.031 55.9984C122.65 57.6783 123.353 59.5834 124.747 61.1004C125.545 61.9679 126.504 62.5992 127.479 63.1336C127.514 63.1555 127.552 63.1702 127.589 63.1921C128.231 63.538 128.879 63.8509 129.498 64.1346C130.34 64.5225 131.906 65.2436 132.138 65.6517C132.299 66.1018 131.824 67.7616 131.567 68.6529C131.273 69.6241 131.039 70.6123 130.865 71.612C130.85 71.6961 130.845 71.7803 130.834 71.8645C130.711 72.6472 130.688 73.4423 130.766 74.2307C131.004 76.2766 131.988 78.0517 132.859 79.6164C133.317 80.4399 134.08 81.816 134.078 82.2315C133.908 82.6835 132.653 83.668 131.904 84.2573ZM156.993 57.9162L139.471 65.9499C139.494 64.7985 139.26 63.6565 138.787 62.6065C138.419 61.818 137.918 61.0991 137.305 60.4819L162.042 49.1396C162.072 49.4616 162.117 49.7819 162.141 50.1021C162.357 53.2662 160.287 56.4047 156.993 57.9162ZM164.46 39.9786L163.133 40.588L163.084 40.6099L129.909 55.8209C129.564 55.2591 129.212 54.3294 128.894 53.4675C128.072 51.2386 127.051 48.4643 124.401 46.9765C123.241 46.325 121.936 46.0084 120.414 46.0084C119.036 46.0084 117.676 46.2756 116.477 46.5117C115.341 46.7349 114.329 46.9985 113.599 46.8484C113.527 46.8338 113.43 46.7862 113.344 46.7532C112.19 40.3611 109.479 34.053 105.097 27.6224L146.625 8.58127C150.561 7.15753 157.962 11.5221 163.115 21.093C167.435 29.1194 167.368 37.5392 164.46 39.9786Z" fill="#2F80ED"/>
<path d="M113.638 60.5367C111.487 59.7309 109.197 59.3599 106.902 59.4454C104.606 59.5308 102.35 60.0709 100.265 61.0345C97.1133 62.4734 94.4632 64.8202 92.6537 67.7744C92.3937 68.1843 92.2179 68.6418 92.1364 69.1203C92.0548 69.5988 92.0693 70.0887 92.179 70.5615C92.2886 71.0344 92.4912 71.4807 92.775 71.8745C93.0587 72.2683 93.418 72.6017 93.8318 72.8554C94.2456 73.109 94.7058 73.2778 95.1855 73.3519C95.6652 73.426 96.1548 73.404 96.6259 73.2871C97.097 73.1702 97.5402 72.9607 97.9295 72.6709C98.3189 72.3811 98.6468 72.0168 98.894 71.5991C99.9456 69.884 101.485 68.5217 103.315 67.6866C104.528 67.127 105.839 66.8133 107.173 66.7637C108.508 66.714 109.839 66.9294 111.089 67.3974C112.342 67.8589 113.491 68.5642 114.47 69.4726C115.449 70.381 116.238 71.4745 116.791 72.6898C117.351 73.9021 117.665 75.2134 117.714 76.5477C117.764 77.8821 117.549 79.213 117.081 80.4636C116.619 81.7168 115.914 82.8661 115.006 83.8449C114.097 84.8237 113.004 85.6126 111.788 86.1659C110.493 86.7579 109.088 87.0714 107.665 87.0863C106.241 87.1013 104.83 86.8172 103.523 86.2525C102.216 85.6877 101.042 84.855 100.077 83.808C99.1115 82.761 98.377 81.5232 97.9204 80.1745C97.771 79.7136 97.5316 79.2869 97.2161 78.9193C96.9005 78.5517 96.5151 78.2503 96.0822 78.0328C95.6492 77.8152 95.1775 77.6858 94.6941 77.652C94.2108 77.6182 93.7256 77.6807 93.2666 77.8359C92.8076 77.9911 92.384 78.2358 92.0204 78.556C91.6567 78.8761 91.3602 79.2653 91.1481 79.7009C90.936 80.1365 90.8125 80.6099 90.7848 81.0936C90.7571 81.5773 90.8257 82.0617 90.9866 82.5187C91.1787 83.0897 91.4038 83.6551 91.66 84.2169C94.599 90.6238 100.951 94.4119 107.579 94.4119C110.013 94.4119 112.485 93.9013 114.839 92.8216C116.929 91.8701 118.81 90.5133 120.373 88.83C121.936 87.1466 123.149 85.17 123.943 83.0146C124.748 80.8636 125.119 78.5742 125.034 76.2789C124.948 73.9836 124.408 71.728 123.445 69.6428C122.494 67.5518 121.138 65.6703 119.454 64.1072C117.771 62.5441 115.794 61.3305 113.638 60.5367Z" fill="#2F80ED"/>
</g>
</svg>
