<svg width="56" height="56" viewBox="0 0 56 56" fill="none" xmlns="http://www.w3.org/2000/svg">
<path d="M9.64578 31.4359C9.25154 30.1725 9.49122 29.3572 9.70682 29.2009C9.82603 29.1148 9.92711 29.0061 10.0043 28.8809C10.0815 28.7557 10.1332 28.6166 10.1566 28.4714C10.18 28.3262 10.1746 28.1778 10.1407 28.0347C10.1067 27.8916 10.0449 27.7566 9.95882 27.6374C9.8727 27.5182 9.76395 27.4171 9.63877 27.34C9.51359 27.2628 9.37443 27.211 9.22925 27.1876C9.08406 27.1642 8.93569 27.1696 8.7926 27.2036C8.64951 27.2375 8.51451 27.2993 8.3953 27.3854C7.22546 28.2305 6.87714 30.0824 7.50826 32.1029C7.5968 32.3864 7.7943 32.6232 8.05735 32.7611C8.32039 32.8991 8.62746 32.927 8.91106 32.8387C9.19447 32.7501 9.43108 32.5525 9.56885 32.2894C9.70663 32.0264 9.7343 31.7194 9.64578 31.4359Z" fill="#2F80ED"/>
<path d="M44.2164 5.68898H44.2153C44.1839 5.69962 44.1514 5.70522 44.1206 5.71698C44.0893 5.72706 44.059 5.74218 44.0277 5.75338C44.0193 5.7573 44.0103 5.75842 44.0013 5.76234L43.9823 5.7713C43.8638 5.81666 43.7484 5.8696 43.6368 5.92978L30.6347 11.8915C29.8905 11.3976 29.0141 11.3086 28.183 11.6899L22.5147 14.2889C21.7027 14.6607 21.4283 15.2319 21.3409 15.6458C21.3074 15.8161 21.2989 15.9904 21.3157 16.1632L6.6359 22.8944C6.53549 22.935 6.43701 22.9802 6.34078 23.0299L6.09998 23.1403C5.97678 23.1968 5.8715 23.2758 5.78078 23.3659C5.62846 23.3917 5.47838 23.4477 5.34174 23.5401C2.37822 25.5432 1.93526 30.4981 4.33374 34.8202C6.04006 37.8957 8.66478 40.1161 11.3556 40.7595C11.9021 40.89 12.4386 40.9555 12.96 40.9555C14.085 40.9555 15.1378 40.6442 16.0725 40.0483L26.1821 35.4132C26.251 35.5683 26.3193 35.7503 26.3832 35.9228C26.6346 36.6049 26.9477 37.4533 27.758 37.9086C28.108 38.1051 28.5185 38.2048 28.9782 38.2048C29.2531 38.2001 29.527 38.1717 29.7969 38.1197C30.1789 39.7 30.1839 41.3571 30.1833 43.0953C30.1828 45.2754 30.1828 47.5299 30.9673 49.7498C31.0346 49.9389 31.1514 50.1064 31.3054 50.235C31.4595 50.3635 31.6453 50.4483 31.8434 50.4806C32.0414 50.5129 32.2445 50.4914 32.4314 50.4184C32.6184 50.3454 32.7823 50.2236 32.9061 50.0656C33.6083 49.1663 34.4561 48.2064 35.5403 47.0864C36.8289 47.9297 38.1537 48.7165 39.5107 49.4446C39.7099 49.5515 39.9368 49.5956 40.1615 49.5712C40.3862 49.5467 40.5983 49.4548 40.7698 49.3076C40.9413 49.1603 41.0643 48.9647 41.1225 48.7462C41.1808 48.5278 41.1715 48.2969 41.0961 48.0838C40.4392 46.2268 40.4397 44.259 40.4397 42.1763C40.4403 40.33 40.4353 38.4305 39.9587 36.5439C39.985 36.522 40.0125 36.5052 40.0377 36.4817C40.7349 35.8405 40.8424 34.9316 40.9286 34.2019C40.9656 33.8878 41.0121 33.4975 41.0966 33.3474C41.1845 33.1911 41.4976 32.9453 41.7496 32.7476C42.3241 32.2968 43.0393 31.7351 43.2241 30.8173C43.4083 29.9062 42.9687 29.1149 42.6165 28.4793C42.5265 28.3204 42.4413 28.1589 42.3611 27.9949L48.9775 24.9608C50.8261 24.113 51.9825 22.2734 51.8542 20.3761C51.8234 19.9789 51.7786 19.5829 51.7198 19.1889C53.6339 17.6439 53.7213 13.9977 51.8906 10.5957C49.8623 6.83306 46.7045 4.8417 44.2164 5.68898ZM29.116 13.7261C29.1815 13.697 29.3557 13.6169 29.6457 13.9955C30.768 15.4627 31.5609 16.8811 32.0509 18.2851C31.9329 18.2789 31.8145 18.2824 31.697 18.2957C30.7853 18.4015 30.1738 19.0584 29.6821 19.5859C29.4458 19.8396 29.1781 20.1269 28.9984 20.2092C28.8186 20.2915 28.4261 20.3072 28.0794 20.3207C27.5625 20.3408 26.9555 20.3683 26.4045 20.6096C25.9614 19.3988 25.3304 18.2653 24.5346 17.2507C24.4279 17.1175 24.3171 16.9875 24.2025 16.861C24.0532 16.6945 23.9096 16.5231 23.7719 16.3469C23.7635 16.3245 23.759 16.3015 23.7489 16.2797C23.7372 16.2534 23.7198 16.2315 23.7064 16.2069L29.116 13.7261ZM15.1093 38.0251C15.0712 38.0424 15.0381 38.0659 15.0034 38.0872C14.9861 38.0973 14.9681 38.104 14.9513 38.1152C13.8655 38.8494 12.6789 38.7743 11.8753 38.5817C9.78534 38.0816 7.69766 36.2695 6.29094 33.7338C4.51182 30.5278 4.65126 26.7097 6.59446 25.3959C6.62302 25.3769 6.64598 25.3528 6.6723 25.331C6.84534 25.3058 7.01614 25.2447 7.1679 25.135C7.23454 25.0868 7.30622 25.0521 7.3779 25.0174L7.48598 24.9675C7.77214 24.86 8.09918 24.8466 8.47886 24.9339C9.8587 25.2503 11.4553 26.764 12.5467 28.7895C13.8728 31.2519 13.8504 33.8335 12.9555 34.571L12.7046 34.6858C12.2818 34.7491 11.5555 34.3974 10.8449 33.5703C10.6481 33.3567 10.376 33.2279 10.0861 33.211C9.79621 33.1941 9.51106 33.2904 9.29077 33.4797C9.07047 33.6689 8.93224 33.9362 8.9052 34.2254C8.87816 34.5145 8.96443 34.8028 9.14582 35.0296C10.216 36.2756 11.4782 36.9409 12.624 36.9409C12.825 36.9409 13.0205 36.9129 13.2125 36.8715C13.5087 36.8074 13.7917 36.693 14.0492 36.5332L23.1565 32.3573C23.1789 32.6115 23.2354 32.8686 23.353 33.1256C23.502 33.445 23.7203 33.7272 23.992 33.9516L15.1093 38.0251ZM24.0765 24.7391C23.5025 25.1899 22.7874 25.7515 22.6021 26.6688C22.4178 27.5799 22.8574 28.3712 23.2097 29.0068C23.3463 29.2521 23.4919 29.5198 23.5529 29.7119L15.8076 33.2634C15.9677 31.6159 15.5455 29.634 14.519 27.7278C13.5009 25.8372 12.1536 24.3515 10.7233 23.4835L22.3551 18.1501C22.4133 18.2167 22.471 18.2834 22.5253 18.3444C22.62 18.4514 22.7062 18.5477 22.7706 18.6295C23.7338 19.8615 24.3885 21.2536 24.6634 22.6559C24.7021 22.8524 24.7905 23.026 24.9121 23.1677L24.8981 23.2836C24.8611 23.5972 24.8146 23.9875 24.7301 24.1382C24.6416 24.2955 24.3285 24.5414 24.0765 24.7391ZM36.009 44.7126C35.7929 44.568 35.5333 44.5029 35.2746 44.5286C35.0158 44.5542 34.774 44.6689 34.5905 44.8531C33.9069 45.5375 33.2409 46.2393 32.593 46.9576C32.4205 45.7167 32.4205 44.4298 32.4211 43.0953C32.4217 41.6236 32.4155 40.1178 32.1741 38.6119C32.6524 38.916 33.2157 39.2055 33.8732 39.2055C33.9572 39.2055 34.0423 39.2011 34.1269 39.191C35.0385 39.0851 35.6501 38.4283 36.1412 37.9007C36.3775 37.6471 36.6452 37.3598 36.8249 37.2769C37.0047 37.1946 37.3973 37.1795 37.7433 37.166L37.8021 37.1632C38.193 38.7547 38.1975 40.4241 38.1975 42.1758C38.1975 43.5052 38.1969 44.8621 38.3745 46.2223C37.5738 45.7384 36.7851 45.235 36.009 44.7126ZM40.3641 30.9859C39.9346 31.323 39.448 31.7049 39.1417 32.2503C38.8381 32.7902 38.7659 33.4006 38.7021 33.9382C38.6707 34.2036 38.6197 34.6275 38.5525 34.781C38.4405 34.7835 38.3295 34.8029 38.2233 34.8387C38.1734 34.856 38.1286 34.8812 38.0833 34.9047C37.9343 34.9159 37.7775 34.9227 37.656 34.9271C37.1021 34.949 36.4738 34.9731 35.8909 35.2402C35.3073 35.5079 34.8789 35.9676 34.5015 36.3736C34.31 36.5791 33.9908 36.9219 33.8693 36.965C33.7192 36.9577 33.3132 36.6844 33.0701 36.5203C32.621 36.2174 32.1114 35.8741 31.5044 35.7515C31.3218 35.7155 31.1361 35.6978 30.95 35.6988C30.8861 35.6988 30.8245 35.7106 30.7607 35.7139C30.5755 35.6817 30.3852 35.6967 30.2074 35.7576C30.1923 35.7632 30.1794 35.7716 30.1649 35.7778C30.0232 35.8019 29.8798 35.8265 29.7488 35.8523C29.4565 35.9099 29.1798 35.9643 28.9765 35.9643C28.8987 35.9643 28.8601 35.9542 28.8589 35.9575C28.7464 35.8595 28.5823 35.4143 28.4837 35.1472C28.2939 34.6331 28.0794 34.0496 27.6521 33.5854C27.4868 33.4118 27.3002 33.26 27.0966 33.1335C27.0725 33.1167 27.049 33.0993 27.0233 33.0842C26.7505 32.9162 26.4661 32.7801 26.1989 32.6575C25.9413 32.5387 25.4614 32.3181 25.3909 32.1932C25.3416 32.0555 25.4866 31.5481 25.5656 31.2754C25.7134 30.7602 25.8809 30.1755 25.8103 29.5679C25.7375 28.9419 25.4362 28.3987 25.1697 27.9199C25.0297 27.6679 24.7961 27.2467 24.7967 27.1196C24.8471 26.9824 25.2313 26.6806 25.4609 26.5008C25.8904 26.1637 26.377 25.7812 26.6833 25.2363C26.9869 24.6959 27.0591 24.0861 27.1229 23.5479C27.1582 23.2539 27.2165 22.7623 27.2943 22.6626C27.4164 22.5881 27.8873 22.5696 28.1685 22.5584C28.7229 22.5366 29.3512 22.5125 29.9341 22.2448C30.5171 21.9777 30.9455 21.5179 31.3235 21.1119C31.5156 20.9059 31.837 20.5609 31.9529 20.5206C32.0913 20.5228 32.4614 20.767 32.7089 20.9339C32.8052 21.113 32.9487 21.2624 33.1238 21.3659C33.2989 21.4693 33.499 21.5229 33.7024 21.5207C33.8984 21.6109 34.1017 21.6899 34.3212 21.7341C34.87 21.845 35.5386 21.7391 36.0779 21.6333C36.3702 21.5756 36.6469 21.5213 36.8501 21.5213C36.9285 21.5213 36.9672 21.5291 36.9677 21.528C37.0803 21.626 37.2444 22.0712 37.3429 22.3383C37.5322 22.8524 37.7473 23.4354 38.174 23.8996C38.4181 24.1651 38.7116 24.3583 39.0101 24.5218C39.0207 24.5285 39.0325 24.533 39.0437 24.5397C39.2402 24.6455 39.4385 24.7413 39.6277 24.8281C39.8853 24.9468 40.3647 25.1675 40.4358 25.2923C40.4851 25.4301 40.3395 25.938 40.2611 26.2107C40.1711 26.5079 40.0993 26.8103 40.0461 27.1163C40.0416 27.142 40.0399 27.1678 40.0365 27.1935C39.999 27.4331 39.9921 27.6764 40.0158 27.9176C40.0886 28.5437 40.3899 29.0869 40.6565 29.5657C40.7965 29.8177 41.03 30.2388 41.0294 30.3659C40.9773 30.5043 40.5932 30.8055 40.3641 30.9859ZM48.0417 22.9252L42.6797 25.3836C42.6867 25.0313 42.6151 24.6818 42.4703 24.3605C42.3578 24.1192 42.2043 23.8992 42.0167 23.7103L49.5868 20.2395C49.5957 20.338 49.6097 20.436 49.617 20.534C49.6831 21.5023 49.0497 22.4627 48.0417 22.9252ZM50.3265 17.4361L49.9205 17.6226L49.9054 17.6293L39.7537 22.284C39.6479 22.1121 39.5404 21.8276 39.4429 21.5639C39.1915 20.8818 38.879 20.0328 38.0681 19.5775C37.7131 19.3782 37.3138 19.2813 36.8479 19.2813C36.4262 19.2813 36.0101 19.3631 35.6433 19.4353C35.2956 19.5036 34.9859 19.5843 34.7625 19.5383C34.7406 19.5339 34.7109 19.5193 34.6846 19.5092C34.3313 17.5531 33.5019 15.6228 32.1607 13.655L44.8688 7.82818C46.0733 7.3925 48.338 8.7281 49.9149 11.6569C51.2371 14.1131 51.2164 16.6896 50.3265 17.4361Z" fill="#2F80ED"/>
<path d="M34.7746 23.7271C34.1162 23.4805 33.4155 23.3669 32.7131 23.3931C32.0106 23.4192 31.3202 23.5845 30.6821 23.8794C29.7177 24.3197 28.9068 25.0378 28.353 25.9419C28.2735 26.0673 28.2197 26.2073 28.1947 26.3537C28.1698 26.5001 28.1742 26.6501 28.2078 26.7947C28.2413 26.9394 28.3033 27.076 28.3901 27.1965C28.477 27.317 28.5869 27.4191 28.7135 27.4967C28.8402 27.5743 28.981 27.626 29.1278 27.6486C29.2746 27.6713 29.4244 27.6646 29.5686 27.6288C29.7127 27.593 29.8483 27.5289 29.9675 27.4403C30.0867 27.3516 30.187 27.2401 30.2626 27.1123C30.5844 26.5874 31.0555 26.1705 31.6156 25.915C31.9866 25.7437 32.3879 25.6477 32.7962 25.6326C33.2045 25.6174 33.6118 25.6833 33.9945 25.8265C34.3779 25.9677 34.7296 26.1835 35.0291 26.4615C35.3286 26.7395 35.5701 27.0741 35.7394 27.446C35.9107 27.817 36.0067 28.2183 36.0219 28.6266C36.037 29.0349 35.9711 29.4422 35.8279 29.8249C35.6868 30.2084 35.4709 30.5601 35.1929 30.8596C34.915 31.1591 34.5803 31.4005 34.2084 31.5699C33.8121 31.751 33.3822 31.847 32.9465 31.8515C32.5108 31.8561 32.079 31.7692 31.6791 31.5963C31.2791 31.4235 30.9198 31.1687 30.6245 30.8483C30.3292 30.5279 30.1044 30.1491 29.9647 29.7364C29.919 29.5954 29.8457 29.4648 29.7492 29.3523C29.6526 29.2398 29.5347 29.1476 29.4022 29.081C29.2697 29.0145 29.1253 28.9749 28.9774 28.9645C28.8295 28.9542 28.681 28.9733 28.5406 29.0208C28.4001 29.0683 28.2705 29.1432 28.1592 29.2411C28.0479 29.3391 27.9572 29.4582 27.8923 29.5915C27.8274 29.7248 27.7896 29.8697 27.7811 30.0177C27.7726 30.1657 27.7936 30.3139 27.8429 30.4538C27.9017 30.6285 27.9706 30.8015 28.049 30.9735C28.9483 32.934 30.8921 34.0932 32.9204 34.0932C33.6652 34.0932 34.4218 33.937 35.1419 33.6066C35.7817 33.3154 36.3573 32.9002 36.8355 32.3851C37.3137 31.87 37.685 31.2651 37.9279 30.6055C38.1744 29.9473 38.2878 29.2467 38.2617 28.5443C38.2355 27.8419 38.0703 27.1517 37.7756 26.5136C37.4845 25.8737 37.0694 25.298 36.5543 24.8197C36.0391 24.3413 35.4342 23.97 34.7746 23.7271Z" fill="#2F80ED"/>
</svg>
