<svg width="79" height="17" viewBox="0 0 79 17" fill="none" xmlns="http://www.w3.org/2000/svg">
<path d="M0 0.601562H15.7489V16.4683H0V0.601562Z" fill="#FF5A00"/>
<path d="M44.1072 3.74316C44.2512 3.75626 44.2774 3.92644 44.2905 4.03117C44.3297 4.56792 44.3428 5.09157 44.3428 5.62832C44.369 6.13888 44.369 6.63636 44.369 7.14692C44.657 6.92437 44.932 6.68872 45.2723 6.55781C45.8091 6.32216 46.4636 6.32216 46.9873 6.59708C47.5502 6.88509 47.943 7.43493 48.1393 8.02404C48.3226 8.58697 48.375 9.18917 48.3357 9.77828C48.2833 10.4721 48.1001 11.166 47.6942 11.7289C47.4586 12.0562 47.1444 12.3442 46.7516 12.4882C46.1233 12.7107 45.4294 12.6322 44.8665 12.2787C44.6963 12.174 44.5392 12.0169 44.3821 11.886C44.3167 12.0955 44.2643 12.2918 44.1988 12.5013C43.8977 12.5013 43.6097 12.5275 43.3086 12.4751C43.4264 12.0038 43.4264 11.5063 43.4395 11.022C43.4657 9.30699 43.4395 7.59202 43.4264 5.89015C43.3872 5.22249 43.4395 4.55483 43.3217 3.90026C43.5966 3.82171 43.8454 3.74316 44.1072 3.74316ZM46.3065 7.27783C46.0447 7.22547 45.7829 7.22547 45.5211 7.25165C45.0498 7.3171 44.6701 7.64439 44.369 7.98477C44.3559 8.10259 44.369 8.20732 44.3559 8.32514V11.0481C44.3428 11.1398 44.4214 11.2052 44.4868 11.2576C44.945 11.7027 45.6258 11.9122 46.2542 11.7551C46.5553 11.6765 46.8171 11.4802 46.9611 11.2052C47.1837 10.8256 47.2622 10.3805 47.3015 9.94847C47.3277 9.62119 47.3669 9.28081 47.3277 8.95353C47.3146 8.57388 47.236 8.16804 47.0397 7.84076C46.8826 7.56584 46.6207 7.34329 46.3065 7.27783ZM50.2078 3.97881C50.391 3.91335 50.6005 3.92644 50.7838 4.00499C50.954 4.10972 51.0718 4.26682 51.1503 4.4501C51.2682 4.84284 50.954 5.28794 50.5481 5.34031C50.234 5.37958 49.8936 5.1963 49.8019 4.88211C49.671 4.54173 49.8674 4.12281 50.2078 3.97881ZM22.2839 4.69883C22.729 4.39773 23.2527 4.16209 23.8025 4.16209C24.3654 4.14899 24.9414 4.18827 25.452 4.437C25.6615 4.52864 25.8709 4.63338 26.0542 4.79047C25.9233 5.01303 25.7531 5.20939 25.596 5.40576C25.3865 5.28794 25.1902 5.15703 24.9676 5.07848C24.4178 4.88211 23.7894 4.84284 23.2396 5.06539C22.7814 5.24867 22.4017 5.60214 22.1661 6.03415C22.009 6.33525 21.865 6.66254 21.7995 7.00291C21.7471 7.3302 21.721 7.67057 21.7079 8.01095C21.6948 8.45605 21.6686 8.91425 21.6948 9.35936C21.7733 9.98774 21.9828 10.6161 22.4148 11.0874C22.7814 11.5194 23.3312 11.7682 23.8941 11.8205C24.1821 11.8336 24.4832 11.8336 24.7713 11.7682C25.1247 11.6896 25.4258 11.5063 25.7531 11.3623C25.9364 11.5456 26.1066 11.7551 26.2637 11.9776C26.028 12.1085 25.7793 12.2395 25.5175 12.3442C24.8367 12.6191 24.0643 12.6322 23.3443 12.5537C22.8206 12.4489 22.3363 12.174 21.9304 11.8336C21.4591 11.4278 21.1188 10.891 20.9224 10.3019C20.7784 9.90919 20.7129 9.49027 20.6737 9.08444C20.6606 8.77025 20.6213 8.46914 20.6606 8.15495C20.6737 7.56584 20.7653 6.98982 21.0009 6.43998C21.2628 5.75923 21.6817 5.11776 22.2839 4.69883Z" fill="#F45F00"/>
<path d="M4.6709 4.55554C4.73636 4.54244 4.8149 4.51626 4.88036 4.51626C5.22074 4.50317 5.56111 4.52935 5.90149 4.54244C5.95385 4.52935 5.98003 4.58172 5.99313 4.62099C6.50369 5.68139 7.01425 6.75488 7.53791 7.81528C7.65573 8.03784 7.74737 8.26039 7.87828 8.46985C7.98301 8.29967 8.07465 8.11639 8.16629 7.93311C8.7554 6.79416 9.30524 5.65521 9.88126 4.51626C10.2609 4.52935 10.6406 4.49008 11.0202 4.55554C10.9548 4.77809 10.8238 4.96137 10.7322 5.17083C9.9729 6.62397 9.20051 8.07711 8.44121 9.53025C8.41503 9.58262 8.40194 9.64808 8.40194 9.71353C8.40194 10.7478 8.40194 11.7951 8.40194 12.8293C8.03538 12.8293 7.66882 12.8293 7.30226 12.8293C7.30226 11.8212 7.30226 10.8001 7.30226 9.79208C7.30226 9.68735 7.31535 9.56953 7.2499 9.4648C6.54296 8.14257 5.84912 6.82034 5.14219 5.48502C4.98509 5.17083 4.8149 4.86973 4.6709 4.55554Z" fill="#FFFEFE"/>
<path d="M65.5738 5.01357C65.8749 4.92193 66.1891 4.84338 66.5033 4.79102C66.4509 5.36704 66.4116 5.94305 66.3986 6.53217C66.8829 6.54526 67.3804 6.54526 67.8648 6.55835C67.7862 6.7809 67.6946 7.00346 67.5899 7.21292C67.171 7.21292 66.7651 7.21292 66.3462 7.21292C66.3462 7.74966 66.3462 8.28641 66.3462 8.82315C66.3462 9.24208 66.3724 9.67409 66.3593 10.093C66.3724 10.5774 66.3462 11.0618 66.3986 11.5331C66.4116 11.7294 66.5949 11.8734 66.7651 11.9258C67.0662 11.9913 67.3804 11.9651 67.6684 11.8996C67.747 12.0698 67.7862 12.2662 67.7731 12.4495C67.5113 12.5935 67.1971 12.6197 66.896 12.6458C66.4771 12.6589 66.0058 12.5935 65.7047 12.2662C65.456 12.0305 65.4822 11.664 65.4429 11.3498C65.4167 10.669 65.4298 9.9752 65.4167 9.29444C65.4167 8.6006 65.4167 7.89367 65.4167 7.19983C65.1549 7.19983 64.893 7.19983 64.6312 7.19983C64.6181 6.97727 64.6181 6.74163 64.6312 6.51907C64.893 6.51907 65.1418 6.51907 65.4036 6.51907C65.4953 6.0216 65.4953 5.51104 65.5738 5.01357ZM29.782 6.38816C30.0308 6.40125 30.2795 6.38816 30.5151 6.46671C31.065 6.64999 31.5232 7.02964 31.8112 7.52711C32.0599 7.95913 32.2301 8.4435 32.2432 8.94098C32.2694 9.60864 32.2956 10.3025 32.0861 10.944C31.8897 11.5462 31.4708 12.0829 30.8948 12.384C30.3319 12.672 29.6511 12.7375 29.0489 12.5673C28.4991 12.4233 28.0278 12.0567 27.7136 11.5854C27.3601 11.0749 27.2423 10.4596 27.2292 9.84428C27.2161 9.25517 27.203 8.65297 27.3994 8.09004C27.5827 7.5402 27.9361 7.02964 28.4336 6.71544C28.6562 6.57144 28.9049 6.45362 29.1667 6.40125C29.3762 6.37507 29.5856 6.38816 29.782 6.38816ZM29.3107 7.14746C28.9965 7.22601 28.6954 7.40929 28.5252 7.6842C28.2765 8.09004 28.2372 8.57442 28.2111 9.03262C28.1849 9.37299 28.2111 9.71337 28.2372 10.0537C28.2896 10.4596 28.3682 10.8916 28.5645 11.2581C28.774 11.6509 29.2191 11.8473 29.6511 11.8734C30.0569 11.8996 30.502 11.7949 30.7901 11.4807C31.0257 11.2189 31.1566 10.8916 31.209 10.5381C31.2744 10.1061 31.2613 9.67409 31.2483 9.24208C31.2352 8.79697 31.1959 8.32568 31.0126 7.90676C30.9079 7.64493 30.7115 7.42238 30.4628 7.29146C30.1224 7.082 29.6904 7.05582 29.3107 7.14746ZM33.8796 6.58453C34.1545 6.49289 34.4295 6.42743 34.7175 6.37507C34.8353 6.63689 34.9007 6.92491 34.9269 7.21292C35.1233 7.10819 35.2673 6.95109 35.4506 6.83327C35.8564 6.53216 36.3539 6.34888 36.8644 6.37507C36.9823 6.38816 37.087 6.41434 37.1917 6.46671C37.3619 6.55835 37.5452 6.64999 37.6892 6.7809C37.8332 6.92491 37.9379 7.10818 38.0427 7.29146C38.2783 7.18673 38.4485 7.00345 38.658 6.85945C39.0114 6.61071 39.4173 6.41434 39.8624 6.37507C40.2682 6.33579 40.674 6.46671 40.9751 6.74163C41.106 6.87254 41.2501 7.00345 41.3155 7.17364C41.381 7.34383 41.4071 7.52711 41.4202 7.71039C41.4857 8.66606 41.4464 9.63482 41.4857 10.5905C41.4857 11.232 41.4857 11.8604 41.4857 12.5018C41.1715 12.5018 40.8573 12.5149 40.53 12.5018C40.53 11.5462 40.53 10.5905 40.53 9.63482C40.53 9.01953 40.5431 8.40423 40.4908 7.78894C40.4646 7.59257 40.3598 7.40929 40.2027 7.29146C40.0195 7.17364 39.7838 7.18673 39.5744 7.19983C39.1947 7.2391 38.8936 7.47474 38.6056 7.6973C38.4747 7.81512 38.3307 7.91985 38.1998 8.03767C38.1605 8.06386 38.1736 8.12931 38.1736 8.16859C38.1736 9.60864 38.1736 11.0487 38.1736 12.4887C37.8594 12.4887 37.5452 12.4887 37.231 12.4887V9.12425C37.231 8.84934 37.231 8.57442 37.2179 8.31259C37.2048 8.03767 37.231 7.73657 37.1001 7.48783C36.9037 7.21291 36.5241 7.16055 36.223 7.2391C35.7517 7.35692 35.3328 7.64493 34.9793 7.97222C34.9269 8.01149 34.9269 8.07694 34.9269 8.1424C34.9269 9.59554 34.9269 11.0487 34.9269 12.5018C34.652 12.5149 34.3771 12.5149 34.1022 12.5018C34.076 11.0225 34.0891 9.53009 34.0498 8.03767C34.0367 7.6973 34.0367 7.35692 33.9974 7.02964C33.9582 6.87254 33.9058 6.72854 33.8796 6.58453ZM49.982 6.53217C50.2831 6.49289 50.5842 6.44052 50.8853 6.37507C50.9246 7.21291 50.9115 8.05076 50.9115 8.88861C50.9115 10.093 50.9115 11.2974 50.9115 12.5018C50.5973 12.5149 50.2831 12.5149 49.9689 12.5018C49.9558 10.7738 49.9689 9.0588 49.9689 7.33074C49.982 7.06891 49.9689 6.79399 49.982 6.53217ZM62.1177 6.41434C62.7592 6.53217 63.309 7.12128 63.3221 7.78894C63.3614 8.78388 63.309 9.77882 63.3221 10.7738V11.0749C63.3221 11.2712 63.3352 11.4676 63.3875 11.664C63.4268 11.8604 63.6101 11.9651 63.7541 12.0829C63.6232 12.2662 63.5054 12.4756 63.3352 12.6327C63.2305 12.7244 63.0995 12.6197 63.021 12.5673C62.7984 12.3971 62.6413 12.1484 62.5104 11.8996C62.301 12.0174 62.157 12.1876 61.9475 12.3055C61.6071 12.528 61.2013 12.6589 60.7824 12.6458C60.4158 12.6589 60.0362 12.5935 59.7089 12.4233C59.1721 12.1353 58.871 11.5069 58.8841 10.9178C58.8841 10.3418 59.1721 9.77883 59.6303 9.43845C60.1802 9.01953 60.8871 8.88861 61.5548 8.83625C61.8559 8.81006 62.1701 8.81006 62.4842 8.79697C62.4973 8.49587 62.4711 8.19477 62.4319 7.89367C62.3926 7.64493 62.2748 7.3831 62.0391 7.25219C61.7642 7.10819 61.4369 7.0951 61.1227 7.14746C60.5467 7.21292 60.01 7.46165 59.5387 7.80203C59.4078 7.61875 59.2769 7.44856 59.1721 7.25219C59.1198 7.16055 59.1983 7.082 59.2769 7.04273C59.9052 6.68926 60.5991 6.38816 61.3322 6.40125H61.6464C61.8035 6.38816 61.9606 6.38816 62.1177 6.41434ZM61.7249 9.41227C61.4369 9.43845 61.1358 9.45154 60.8609 9.53009C60.5205 9.62173 60.2063 9.84428 60.0231 10.1454C59.9183 10.3156 59.9183 10.525 59.9052 10.7214C59.9052 10.9309 59.8791 11.1665 59.9576 11.3629C60.0362 11.5723 60.1802 11.7687 60.3896 11.8473C60.6253 11.952 60.9002 11.9651 61.162 11.9389C61.4762 11.8996 61.7511 11.7294 61.9868 11.5462C62.1831 11.376 62.3795 11.1665 62.3926 10.8916C62.4319 10.4072 62.4188 9.92283 62.4319 9.43845C62.1962 9.43845 61.9606 9.38608 61.7249 9.41227ZM71.9886 6.42744C72.5253 6.55835 73.0097 6.88563 73.3239 7.33074C73.5857 7.6973 73.7559 8.11622 73.8345 8.56133C73.8999 8.98025 73.9261 9.41227 73.8999 9.83119C73.8868 10.525 73.6774 11.2189 73.2584 11.7687C72.9181 12.2138 72.3944 12.4756 71.8577 12.5804C71.2031 12.6982 70.4962 12.5804 69.9463 12.1876C69.4619 11.8473 69.1608 11.2974 68.9907 10.7476C68.899 10.4596 68.8859 10.1716 68.8597 9.87046C68.8466 9.37299 68.8466 8.87552 68.9383 8.39114C69.0692 7.8413 69.3441 7.30456 69.763 6.91181C70.0772 6.6238 70.47 6.44053 70.8889 6.38816C71.2555 6.34889 71.622 6.36198 71.9886 6.42744ZM70.9544 7.13437C70.5093 7.18673 70.1558 7.5402 70.0118 7.94603C69.8285 8.37805 69.8547 8.84934 69.8416 9.30754C69.8547 9.73955 69.8547 10.1716 69.9332 10.6036C69.9856 10.8916 70.0772 11.1796 70.2736 11.4022C70.4569 11.6247 70.7318 11.7687 71.0067 11.8211C71.1114 11.8473 71.2293 11.8604 71.334 11.8604H71.4387L71.5435 11.8473C71.766 11.8211 71.9755 11.7556 72.1719 11.6509C72.4075 11.52 72.5777 11.2712 72.6693 11.0225C72.7871 10.7214 72.8002 10.3941 72.8264 10.0799C72.8395 9.70028 72.8526 9.32063 72.8264 8.94098C72.8002 8.54823 72.7479 8.1424 72.5646 7.78894C72.3944 7.52711 72.1588 7.30456 71.8708 7.17364C71.5958 7.09509 71.2685 7.09509 70.9544 7.13437ZM75.5101 6.59762C75.7982 6.51907 76.0731 6.42744 76.3611 6.36198C76.5182 6.64999 76.5444 6.99036 76.5575 7.30456C76.7015 7.19982 76.8193 7.05582 76.9502 6.92491C77.356 6.51907 77.9582 6.27034 78.5343 6.37507V6.45362C78.4033 6.72854 78.3248 7.02964 78.207 7.31765C78.1939 7.37001 78.1153 7.35692 78.0761 7.35692C77.8273 7.35692 77.5524 7.35692 77.3298 7.48783C77.1073 7.61875 76.9109 7.78894 76.7538 7.9984C76.5967 8.19477 76.6229 8.46969 76.6229 8.70533C76.6098 9.04571 76.5967 9.38608 76.6098 9.72646C76.6098 10.6429 76.6098 11.5723 76.6098 12.4887C76.2956 12.5018 75.9814 12.5018 75.6672 12.4887C75.6672 11.4676 75.6672 10.4334 75.6672 9.41227C75.6672 8.71842 75.6672 8.01149 75.6411 7.31765C75.6149 7.082 75.5363 6.84636 75.5101 6.59762ZM52.7705 6.61071C53.0454 6.51907 53.3334 6.41434 53.6214 6.41434C53.7261 6.68926 53.7916 6.97727 53.8309 7.26528C54.0796 7.10819 54.2891 6.89873 54.5509 6.75472C55.0484 6.46671 55.6506 6.25725 56.2135 6.46671C56.5408 6.58453 56.868 6.76781 57.0644 7.06891C57.2215 7.27837 57.2608 7.56638 57.287 7.82821C57.3393 8.7577 57.3262 9.68718 57.3262 10.6298C57.3262 11.2581 57.3393 11.8734 57.3393 12.5018C57.0251 12.5149 56.711 12.5149 56.3968 12.5018C56.3968 11.4807 56.3706 10.4465 56.3706 9.42536C56.3575 8.84934 56.3837 8.28641 56.3182 7.71039C56.2266 7.43547 55.9647 7.21292 55.6767 7.19983C55.4673 7.18673 55.2447 7.18673 55.0353 7.26528C54.5902 7.43547 54.1843 7.71039 53.8178 8.01149C53.8047 9.5039 53.8178 11.0094 53.8178 12.5018C53.5428 12.5018 53.2679 12.5149 52.993 12.5018C52.993 11.6509 52.9668 10.8 52.9668 9.94901C52.9537 9.07189 52.9668 8.20786 52.9145 7.33074C52.9014 7.082 52.8228 6.84636 52.7705 6.61071Z" fill="#F45F00"/>
</svg>
