<svg width="157" height="86" viewBox="0 0 157 86" fill="none" xmlns="http://www.w3.org/2000/svg">
<path d="M55.7123 17.4868C48.5433 26.5008 39.205 33.6442 31.1169 41.784C22.7208 50.2314 14.7372 59.1168 7.26663 68.4456C7.16591 67.2717 7.06519 66.0977 6.97118 64.9242C9.13877 67.3407 12.9147 66.1835 15.5429 65.3283C19.3895 64.0851 23.1675 62.5409 26.9666 61.1429C34.6054 58.3356 42.2446 55.5213 49.8902 52.7143C57.3246 49.9784 64.7587 47.2495 72.1931 44.5136C78.9181 42.0422 85.7578 39.5565 90.9914 34.3953C91.5289 35.9048 92.0594 37.4208 92.5968 38.9303C64.6449 35.5187 37.8249 25.0016 14.5519 8.48235C15.7277 7.64953 16.8971 6.80945 18.0729 5.97662C19.6025 19.2662 22.3749 32.3972 26.4598 45.1386C28.5683 51.7065 31.0243 58.1557 33.8154 64.4578C35.035 67.2222 36.1427 70.4296 37.8569 72.9245C40.1997 76.3325 42.4847 74.3175 44.0235 71.4725C47.043 65.8901 48.3346 58.6553 49.9521 52.5104C51.7205 45.7863 53.2431 38.9931 54.5259 32.1451C55.843 25.1123 56.8802 18.0223 57.6567 10.897C58.3904 4.17029 58.5544 -2.59524 59.8884 -9.21231C60.3084 -11.3042 63.8568 -11.1469 64.0722 -8.97794C65.2451 2.98506 62.7054 15.701 60.6354 27.427C58.4012 40.0633 55.3471 52.5361 51.4777 64.7282C49.6545 70.4745 44.5213 85.1882 36.0563 77.9392C32.3989 74.8032 30.6027 68.6606 28.747 64.3328C26.3696 58.7729 24.2318 53.102 22.346 47.3484C18.0407 34.2352 15.1229 20.7089 13.5429 7.00175C13.3184 5.06044 15.2344 3.19758 17.0638 4.49602C39.6321 20.4919 65.7259 30.5189 92.805 33.7433C94.9785 34.0033 96.0338 36.6756 94.4105 38.2783C88.9449 43.6961 81.9317 46.4832 74.892 49.096C66.1197 52.3515 57.3473 55.6069 48.582 58.8558C39.9121 62.0686 31.2487 65.2887 22.5789 68.5015C16.3715 70.8014 8.4073 74.6828 2.8378 68.792C2.0321 67.9381 1.80464 66.2385 2.54235 65.2706C9.82982 55.648 17.5789 46.4108 25.8976 37.7171C33.9917 29.2596 42.6215 19.8436 53.038 14.4681C54.7261 13.5949 57.0702 15.8001 55.7184 17.501L55.7123 17.4868Z" fill="#FAC515"/>
<path d="M124.919 -11.1117C118.183 3.67818 109.634 17.7788 101.866 32.0131L99.6006 28.6786C117.481 26.037 134.873 21.1491 151.575 14.2108L151.417 18.1423C133.933 8.90877 118.029 -3.20197 104.066 -17.4507C105.281 -18.0947 106.497 -18.7387 107.712 -19.3826C109.675 0.360282 114.367 19.8967 122.49 38.0213L119.875 37.8749C124.494 29.444 127.888 20.3776 129.922 10.8894C131.948 1.44212 132.21 -8.26292 132.497 -17.9251C132.546 -19.4916 134.97 -19.7706 135.227 -18.1523C138.374 1.54635 132.057 22.8164 122.427 39.5871C121.863 40.5648 120.287 40.4904 119.812 39.4406C111.458 21.061 105.677 1.68489 103.562 -18.4537C103.339 -20.5954 105.58 -22.0253 107.208 -20.3856C121.003 -6.46426 136.739 5.11174 153.821 14.3297C155.235 15.0933 155.145 17.6668 153.663 18.2613C136.572 25.1778 118.764 30.0631 100.565 32.9357C98.6854 33.2313 97.3991 31.2928 98.3003 29.6012C102.1 22.4863 105.887 15.3706 109.733 8.28589C113.564 1.22803 117.144 -6.08592 121.42 -12.8561C122.569 -14.6791 125.884 -13.2214 124.919 -11.1117Z" fill="#FAC515"/>
</svg>